<svg xmlns="http://www.w3.org/2000/svg" width="980" height="560" viewBox="0 0 980 560">
<rect width="100%" height="100%" fill="#fbfaf7"/>
<text x="92" y="34" font-family="Arial,sans-serif" font-size="22" font-weight="700" fill="#19212b">Qwen3-8B · grammar-specific P0 targeted retrieval</text>
<text x="92" y="56" font-family="Arial,sans-serif" font-size="13" fill="#59636f">Confirmation only · registered-anchor weighted · persistent P0 pre-O ablation</text>
<line x1="92" y1="468.00" x2="944" y2="468.00" stroke="#d9d6cf" stroke-width="1"/>
<text x="80" y="472.00" text-anchor="end" font-family="Arial,sans-serif" font-size="12" fill="#59636f">0%</text>
<line x1="92" y1="388.40" x2="944" y2="388.40" stroke="#d9d6cf" stroke-width="1"/>
<text x="80" y="392.40" text-anchor="end" font-family="Arial,sans-serif" font-size="12" fill="#59636f">7%</text>
<line x1="92" y1="308.80" x2="944" y2="308.80" stroke="#d9d6cf" stroke-width="1"/>
<text x="80" y="312.80" text-anchor="end" font-family="Arial,sans-serif" font-size="12" fill="#59636f">15%</text>
<line x1="92" y1="229.20" x2="944" y2="229.20" stroke="#d9d6cf" stroke-width="1"/>
<text x="80" y="233.20" text-anchor="end" font-family="Arial,sans-serif" font-size="12" fill="#59636f">22%</text>
<line x1="92" y1="149.60" x2="944" y2="149.60" stroke="#d9d6cf" stroke-width="1"/>
<text x="80" y="153.60" text-anchor="end" font-family="Arial,sans-serif" font-size="12" fill="#59636f">30%</text>
<line x1="92" y1="70.00" x2="944" y2="70.00" stroke="#d9d6cf" stroke-width="1"/>
<text x="80" y="74.00" text-anchor="end" font-family="Arial,sans-serif" font-size="12" fill="#59636f">37%</text>
<line x1="92" y1="468.00" x2="944" y2="468.00" stroke="#7d838a" stroke-width="1.4"/>
<line x1="92.00" y1="70" x2="92.00" y2="468" stroke="#eeeae2" stroke-width="1"/>
<text x="92.00" y="493" text-anchor="middle" font-family="Arial,sans-serif" font-size="13" fill="#26313c">K32</text>
<line x1="262.40" y1="70" x2="262.40" y2="468" stroke="#eeeae2" stroke-width="1"/>
<text x="262.40" y="493" text-anchor="middle" font-family="Arial,sans-serif" font-size="13" fill="#26313c">K64</text>
<line x1="432.80" y1="70" x2="432.80" y2="468" stroke="#eeeae2" stroke-width="1"/>
<text x="432.80" y="493" text-anchor="middle" font-family="Arial,sans-serif" font-size="13" fill="#26313c">K80</text>
<line x1="603.20" y1="70" x2="603.20" y2="468" stroke="#eeeae2" stroke-width="1"/>
<text x="603.20" y="493" text-anchor="middle" font-family="Arial,sans-serif" font-size="13" fill="#26313c">K96</text>
<line x1="773.60" y1="70" x2="773.60" y2="468" stroke="#eeeae2" stroke-width="1"/>
<text x="773.60" y="493" text-anchor="middle" font-family="Arial,sans-serif" font-size="13" fill="#26313c">K112</text>
<line x1="944.00" y1="70" x2="944.00" y2="468" stroke="#eeeae2" stroke-width="1"/>
<text x="944.00" y="493" text-anchor="middle" font-family="Arial,sans-serif" font-size="13" fill="#26313c">K128</text>
<path d="M 92.00 370.36 L 262.40 345.95 L 432.80 333.75 L 603.20 248.31 L 773.60 126.26 L 944.00 101.85" fill="none" stroke="#a43b32" stroke-width="3"/>
<circle cx="92.00" cy="370.36" r="4.5" fill="#fbfaf7" stroke="#a43b32" stroke-width="2.5"/>
<circle cx="262.40" cy="345.95" r="4.5" fill="#fbfaf7" stroke="#a43b32" stroke-width="2.5"/>
<circle cx="432.80" cy="333.75" r="4.5" fill="#fbfaf7" stroke="#a43b32" stroke-width="2.5"/>
<circle cx="603.20" cy="248.31" r="4.5" fill="#fbfaf7" stroke="#a43b32" stroke-width="2.5"/>
<circle cx="773.60" cy="126.26" r="4.5" fill="#fbfaf7" stroke="#a43b32" stroke-width="2.5"/>
<circle cx="944.00" cy="101.85" r="4.5" fill="#fbfaf7" stroke="#a43b32" stroke-width="2.5"/>
<line x1="100" y1="532" x2="132" y2="532" stroke="#a43b32" stroke-width="3"/>
<text x="140" y="536" font-family="Arial,sans-serif" font-size="12" fill="#26313c">Selected bank failure</text>
<path d="M 92.00 423.25 L 262.40 406.98 L 432.80 402.91 L 603.20 390.70 L 773.60 411.04 L 944.00 411.04" fill="none" stroke="#315f78" stroke-width="3" stroke-dasharray="7 5"/>
<circle cx="92.00" cy="423.25" r="4.5" fill="#fbfaf7" stroke="#315f78" stroke-width="2.5"/>
<circle cx="262.40" cy="406.98" r="4.5" fill="#fbfaf7" stroke="#315f78" stroke-width="2.5"/>
<circle cx="432.80" cy="402.91" r="4.5" fill="#fbfaf7" stroke="#315f78" stroke-width="2.5"/>
<circle cx="603.20" cy="390.70" r="4.5" fill="#fbfaf7" stroke="#315f78" stroke-width="2.5"/>
<circle cx="773.60" cy="411.04" r="4.5" fill="#fbfaf7" stroke="#315f78" stroke-width="2.5"/>
<circle cx="944.00" cy="411.04" r="4.5" fill="#fbfaf7" stroke="#315f78" stroke-width="2.5"/>
<line x1="350" y1="532" x2="382" y2="532" stroke="#315f78" stroke-width="3" stroke-dasharray="7 5"/>
<text x="390" y="536" font-family="Arial,sans-serif" font-size="12" fill="#26313c">Random control failure</text>
<path d="M 92.00 415.11 L 262.40 406.98 L 432.80 398.84 L 603.20 325.61 L 773.60 183.22 L 944.00 158.81" fill="none" stroke="#7b4ea3" stroke-width="3" stroke-dasharray="3 3"/>
<circle cx="92.00" cy="415.11" r="4.5" fill="#fbfaf7" stroke="#7b4ea3" stroke-width="2.5"/>
<circle cx="262.40" cy="406.98" r="4.5" fill="#fbfaf7" stroke="#7b4ea3" stroke-width="2.5"/>
<circle cx="432.80" cy="398.84" r="4.5" fill="#fbfaf7" stroke="#7b4ea3" stroke-width="2.5"/>
<circle cx="603.20" cy="325.61" r="4.5" fill="#fbfaf7" stroke="#7b4ea3" stroke-width="2.5"/>
<circle cx="773.60" cy="183.22" r="4.5" fill="#fbfaf7" stroke="#7b4ea3" stroke-width="2.5"/>
<circle cx="944.00" cy="158.81" r="4.5" fill="#fbfaf7" stroke="#7b4ea3" stroke-width="2.5"/>
<line x1="600" y1="532" x2="632" y2="532" stroke="#7b4ea3" stroke-width="3" stroke-dasharray="3 3"/>
<text x="640" y="536" font-family="Arial,sans-serif" font-size="12" fill="#26313c">Selected − random</text>
<text x="22" y="269.0" transform="rotate(-90 22 269.0)" text-anchor="middle" font-family="Arial,sans-serif" font-size="13" fill="#26313c">Failure rate / specificity</text>
<text x="518.0" y="506" text-anchor="middle" font-family="Arial,sans-serif" font-size="13" fill="#26313c">Number of ablated ranked heads (Top-K)</text>
</svg>